<svg xmlns="http://www.w3.org/2000/svg" viewBox="0 0 1024 1024">
  <rect width="1024" height="1024" fill="#0F1113"/>
  <line x1="512.0" y1="112.0" x2="512.0" y2="302.0" stroke="#D4AF37" stroke-width="26" stroke-linecap="round"/>
  <line x1="539.3" y1="112.9" x2="533.8" y2="192.7" stroke="#5E5126" stroke-width="12" stroke-linecap="round"/>
  <line x1="566.5" y1="115.7" x2="555.6" y2="195.0" stroke="#5E5126" stroke-width="12" stroke-linecap="round"/>
  <line x1="593.4" y1="120.4" x2="577.1" y2="198.7" stroke="#5E5126" stroke-width="12" stroke-linecap="round"/>
  <line x1="619.9" y1="126.8" x2="598.3" y2="203.9" stroke="#5E5126" stroke-width="12" stroke-linecap="round"/>
  <line x1="646.0" y1="135.1" x2="619.2" y2="210.5" stroke="#5E5126" stroke-width="12" stroke-linecap="round"/>
  <line x1="671.4" y1="145.1" x2="639.5" y2="218.5" stroke="#5E5126" stroke-width="12" stroke-linecap="round"/>
  <line x1="696.0" y1="156.8" x2="659.2" y2="227.9" stroke="#5E5126" stroke-width="12" stroke-linecap="round"/>
  <line x1="719.8" y1="170.2" x2="678.3" y2="238.6" stroke="#5E5126" stroke-width="12" stroke-linecap="round"/>
  <line x1="742.7" y1="185.2" x2="696.5" y2="250.6" stroke="#5E5126" stroke-width="12" stroke-linecap="round"/>
  <line x1="764.4" y1="201.7" x2="713.9" y2="263.8" stroke="#5E5126" stroke-width="12" stroke-linecap="round"/>
  <line x1="785.0" y1="219.7" x2="730.4" y2="278.1" stroke="#5E5126" stroke-width="12" stroke-linecap="round"/>
  <line x1="804.3" y1="239.0" x2="745.9" y2="293.6" stroke="#5E5126" stroke-width="12" stroke-linecap="round"/>
  <line x1="822.3" y1="259.6" x2="760.2" y2="310.1" stroke="#5E5126" stroke-width="12" stroke-linecap="round"/>
  <line x1="838.8" y1="281.3" x2="773.4" y2="327.5" stroke="#5E5126" stroke-width="12" stroke-linecap="round"/>
  <line x1="853.8" y1="304.2" x2="785.4" y2="345.7" stroke="#5E5126" stroke-width="12" stroke-linecap="round"/>
  <line x1="867.2" y1="328.0" x2="796.1" y2="364.8" stroke="#5E5126" stroke-width="12" stroke-linecap="round"/>
  <line x1="878.9" y1="352.6" x2="805.5" y2="384.5" stroke="#5E5126" stroke-width="12" stroke-linecap="round"/>
  <line x1="888.9" y1="378.0" x2="813.5" y2="404.8" stroke="#5E5126" stroke-width="12" stroke-linecap="round"/>
  <line x1="897.2" y1="404.1" x2="820.1" y2="425.7" stroke="#5E5126" stroke-width="12" stroke-linecap="round"/>
  <line x1="903.6" y1="430.6" x2="825.3" y2="446.9" stroke="#5E5126" stroke-width="12" stroke-linecap="round"/>
  <line x1="908.3" y1="457.5" x2="829.0" y2="468.4" stroke="#5E5126" stroke-width="12" stroke-linecap="round"/>
  <line x1="911.1" y1="484.7" x2="831.3" y2="490.2" stroke="#5E5126" stroke-width="12" stroke-linecap="round"/>
  <line x1="912.0" y1="512.0" x2="832.0" y2="512.0" stroke="#5E5126" stroke-width="12" stroke-linecap="round"/>
  <line x1="911.1" y1="539.3" x2="831.3" y2="533.8" stroke="#5E5126" stroke-width="12" stroke-linecap="round"/>
  <line x1="908.3" y1="566.5" x2="829.0" y2="555.6" stroke="#5E5126" stroke-width="12" stroke-linecap="round"/>
  <line x1="903.6" y1="593.4" x2="825.3" y2="577.1" stroke="#5E5126" stroke-width="12" stroke-linecap="round"/>
  <line x1="897.2" y1="619.9" x2="820.1" y2="598.3" stroke="#5E5126" stroke-width="12" stroke-linecap="round"/>
  <line x1="888.9" y1="646.0" x2="813.5" y2="619.2" stroke="#5E5126" stroke-width="12" stroke-linecap="round"/>
  <line x1="878.9" y1="671.4" x2="805.5" y2="639.5" stroke="#5E5126" stroke-width="12" stroke-linecap="round"/>
  <line x1="867.2" y1="696.0" x2="796.1" y2="659.2" stroke="#5E5126" stroke-width="12" stroke-linecap="round"/>
  <line x1="853.8" y1="719.8" x2="785.4" y2="678.3" stroke="#5E5126" stroke-width="12" stroke-linecap="round"/>
  <line x1="838.8" y1="742.7" x2="773.4" y2="696.5" stroke="#5E5126" stroke-width="12" stroke-linecap="round"/>
  <line x1="822.3" y1="764.4" x2="760.2" y2="713.9" stroke="#5E5126" stroke-width="12" stroke-linecap="round"/>
  <line x1="804.3" y1="785.0" x2="745.9" y2="730.4" stroke="#5E5126" stroke-width="12" stroke-linecap="round"/>
  <line x1="785.0" y1="804.3" x2="730.4" y2="745.9" stroke="#5E5126" stroke-width="12" stroke-linecap="round"/>
  <line x1="764.4" y1="822.3" x2="713.9" y2="760.2" stroke="#5E5126" stroke-width="12" stroke-linecap="round"/>
  <line x1="742.7" y1="838.8" x2="696.5" y2="773.4" stroke="#5E5126" stroke-width="12" stroke-linecap="round"/>
  <line x1="719.8" y1="853.8" x2="678.3" y2="785.4" stroke="#5E5126" stroke-width="12" stroke-linecap="round"/>
  <line x1="696.0" y1="867.2" x2="659.2" y2="796.1" stroke="#5E5126" stroke-width="12" stroke-linecap="round"/>
  <line x1="671.4" y1="878.9" x2="639.5" y2="805.5" stroke="#5E5126" stroke-width="12" stroke-linecap="round"/>
  <line x1="646.0" y1="888.9" x2="619.2" y2="813.5" stroke="#5E5126" stroke-width="12" stroke-linecap="round"/>
  <line x1="619.9" y1="897.2" x2="598.3" y2="820.1" stroke="#5E5126" stroke-width="12" stroke-linecap="round"/>
  <line x1="593.4" y1="903.6" x2="577.1" y2="825.3" stroke="#5E5126" stroke-width="12" stroke-linecap="round"/>
  <line x1="566.5" y1="908.3" x2="555.6" y2="829.0" stroke="#5E5126" stroke-width="12" stroke-linecap="round"/>
  <line x1="539.3" y1="911.1" x2="533.8" y2="831.3" stroke="#5E5126" stroke-width="12" stroke-linecap="round"/>
  <line x1="512.0" y1="912.0" x2="512.0" y2="832.0" stroke="#5E5126" stroke-width="12" stroke-linecap="round"/>
  <line x1="484.7" y1="911.1" x2="490.2" y2="831.3" stroke="#5E5126" stroke-width="12" stroke-linecap="round"/>
  <line x1="457.5" y1="908.3" x2="468.4" y2="829.0" stroke="#5E5126" stroke-width="12" stroke-linecap="round"/>
  <line x1="430.6" y1="903.6" x2="446.9" y2="825.3" stroke="#5E5126" stroke-width="12" stroke-linecap="round"/>
  <line x1="404.1" y1="897.2" x2="425.7" y2="820.1" stroke="#5E5126" stroke-width="12" stroke-linecap="round"/>
  <line x1="378.0" y1="888.9" x2="404.8" y2="813.5" stroke="#5E5126" stroke-width="12" stroke-linecap="round"/>
  <line x1="352.6" y1="878.9" x2="384.5" y2="805.5" stroke="#5E5126" stroke-width="12" stroke-linecap="round"/>
  <line x1="328.0" y1="867.2" x2="364.8" y2="796.1" stroke="#5E5126" stroke-width="12" stroke-linecap="round"/>
  <line x1="304.2" y1="853.8" x2="345.7" y2="785.4" stroke="#5E5126" stroke-width="12" stroke-linecap="round"/>
  <line x1="281.3" y1="838.8" x2="327.5" y2="773.4" stroke="#5E5126" stroke-width="12" stroke-linecap="round"/>
  <line x1="259.6" y1="822.3" x2="310.1" y2="760.2" stroke="#5E5126" stroke-width="12" stroke-linecap="round"/>
  <line x1="239.0" y1="804.3" x2="293.6" y2="745.9" stroke="#5E5126" stroke-width="12" stroke-linecap="round"/>
  <line x1="219.7" y1="785.0" x2="278.1" y2="730.4" stroke="#5E5126" stroke-width="12" stroke-linecap="round"/>
  <line x1="201.7" y1="764.4" x2="263.8" y2="713.9" stroke="#5E5126" stroke-width="12" stroke-linecap="round"/>
  <line x1="185.2" y1="742.7" x2="250.6" y2="696.5" stroke="#5E5126" stroke-width="12" stroke-linecap="round"/>
  <line x1="170.2" y1="719.8" x2="238.6" y2="678.3" stroke="#5E5126" stroke-width="12" stroke-linecap="round"/>
  <line x1="156.8" y1="696.0" x2="227.9" y2="659.2" stroke="#5E5126" stroke-width="12" stroke-linecap="round"/>
  <line x1="145.1" y1="671.4" x2="218.5" y2="639.5" stroke="#5E5126" stroke-width="12" stroke-linecap="round"/>
  <line x1="135.1" y1="646.0" x2="210.5" y2="619.2" stroke="#5E5126" stroke-width="12" stroke-linecap="round"/>
  <line x1="126.8" y1="619.9" x2="203.9" y2="598.3" stroke="#5E5126" stroke-width="12" stroke-linecap="round"/>
  <line x1="120.4" y1="593.4" x2="198.7" y2="577.1" stroke="#5E5126" stroke-width="12" stroke-linecap="round"/>
  <line x1="115.7" y1="566.5" x2="195.0" y2="555.6" stroke="#5E5126" stroke-width="12" stroke-linecap="round"/>
  <line x1="112.9" y1="539.3" x2="192.7" y2="533.8" stroke="#5E5126" stroke-width="12" stroke-linecap="round"/>
  <line x1="112.0" y1="512.0" x2="192.0" y2="512.0" stroke="#5E5126" stroke-width="12" stroke-linecap="round"/>
  <line x1="112.9" y1="484.7" x2="192.7" y2="490.2" stroke="#5E5126" stroke-width="12" stroke-linecap="round"/>
  <line x1="115.7" y1="457.5" x2="195.0" y2="468.4" stroke="#5E5126" stroke-width="12" stroke-linecap="round"/>
  <line x1="120.4" y1="430.6" x2="198.7" y2="446.9" stroke="#5E5126" stroke-width="12" stroke-linecap="round"/>
  <line x1="126.8" y1="404.1" x2="203.9" y2="425.7" stroke="#5E5126" stroke-width="12" stroke-linecap="round"/>
  <line x1="135.1" y1="378.0" x2="210.5" y2="404.8" stroke="#5E5126" stroke-width="12" stroke-linecap="round"/>
  <line x1="145.1" y1="352.6" x2="218.5" y2="384.5" stroke="#5E5126" stroke-width="12" stroke-linecap="round"/>
  <line x1="156.8" y1="328.0" x2="227.9" y2="364.8" stroke="#5E5126" stroke-width="12" stroke-linecap="round"/>
  <line x1="170.2" y1="304.2" x2="238.6" y2="345.7" stroke="#5E5126" stroke-width="12" stroke-linecap="round"/>
  <line x1="185.2" y1="281.3" x2="250.6" y2="327.5" stroke="#5E5126" stroke-width="12" stroke-linecap="round"/>
  <line x1="201.7" y1="259.6" x2="263.8" y2="310.1" stroke="#5E5126" stroke-width="12" stroke-linecap="round"/>
  <line x1="219.7" y1="239.0" x2="278.1" y2="293.6" stroke="#5E5126" stroke-width="12" stroke-linecap="round"/>
  <line x1="239.0" y1="219.7" x2="293.6" y2="278.1" stroke="#5E5126" stroke-width="12" stroke-linecap="round"/>
  <line x1="259.6" y1="201.7" x2="310.1" y2="263.8" stroke="#5E5126" stroke-width="12" stroke-linecap="round"/>
  <line x1="281.3" y1="185.2" x2="327.5" y2="250.6" stroke="#5E5126" stroke-width="12" stroke-linecap="round"/>
  <line x1="304.2" y1="170.2" x2="345.7" y2="238.6" stroke="#5E5126" stroke-width="12" stroke-linecap="round"/>
  <line x1="328.0" y1="156.8" x2="364.8" y2="227.9" stroke="#5E5126" stroke-width="12" stroke-linecap="round"/>
  <line x1="352.6" y1="145.1" x2="384.5" y2="218.5" stroke="#5E5126" stroke-width="12" stroke-linecap="round"/>
  <line x1="378.0" y1="135.1" x2="404.8" y2="210.5" stroke="#5E5126" stroke-width="12" stroke-linecap="round"/>
  <line x1="404.1" y1="126.8" x2="425.7" y2="203.9" stroke="#5E5126" stroke-width="12" stroke-linecap="round"/>
  <line x1="430.6" y1="120.4" x2="446.9" y2="198.7" stroke="#5E5126" stroke-width="12" stroke-linecap="round"/>
  <line x1="457.5" y1="115.7" x2="468.4" y2="195.0" stroke="#5E5126" stroke-width="12" stroke-linecap="round"/>
  <line x1="484.7" y1="112.9" x2="490.2" y2="192.7" stroke="#5E5126" stroke-width="12" stroke-linecap="round"/>
</svg>
